<?xml version="1.0" encoding="utf-8"?>
<!-- Uploaded to: SVG Repo, www.svgrepo.com, Generator: SVG Repo Mixer Tools -->
<svg fill="#000000" width="800px" height="800px" viewBox="0 0 32 32" version="1.1" xmlns="http://www.w3.org/2000/svg">
<title>mute</title>
<path d="M16 28.469c-6.887 0-12.469-5.582-12.469-12.469s5.582-12.469 12.469-12.469c6.886 0 12.469 5.582 12.469 12.469s-5.583 12.469-12.469 12.469zM11.997 9.473c-0.861 0-1.559 0.93-1.559 2.078s0.697 2.078 1.559 2.078c0.86 0 1.559-0.931 1.559-2.078 0-1.149-0.699-2.078-1.559-2.078zM11.849 18.391l-0.52 0.9 3.659 2.113-3.725 2.149 0.52 0.899 4.244-2.449 4.244 2.449 0.52-0.899-3.725-2.149 3.659-2.113-0.52-0.9-4.179 2.413-4.177-2.413zM20.047 9.481c-0.859 0-1.558 0.931-1.558 2.078s0.698 2.078 1.558 2.078c0.861 0 1.56-0.93 1.56-2.078-0.001-1.147-0.699-2.078-1.56-2.078z"></path>
</svg>