<?xml version="1.0" encoding="utf-8"?>
<!-- Uploaded to: SVG Repo, www.svgrepo.com, Generator: SVG Repo Mixer Tools -->
<svg fill="#000000" height="800px" width="800px" version="1.2" baseProfile="tiny" id="Layer_1" xmlns="http://www.w3.org/2000/svg" xmlns:xlink="http://www.w3.org/1999/xlink"
	  viewBox="-351 154 256 254" xml:space="preserve">
<path d="M-226.5,156.3c10.9,0,19.8,8.9,19.8,19.8s-8.9,19.8-19.8,19.8s-19.8-8.9-19.8-19.8S-237.4,156.3-226.5,156.3z M-176.9,291.8
	h-17.3h-5h-54.5h-5h-17.4H-331v14.4h16.1v99.5h175.8v-99.5h16.1v-14.4H-176.9z M-258.4,230.6c0-1.5,1-2.4,2.4-2.4s2.4,1,2.4,2.4
	v55.5h54.5v-55.5c0-1.5,1-2.4,2.4-2.4c1.5,0,2.4,1,2.4,2.4v55.5h17.4v-60.5c0-13.7-11.1-24.8-24.8-24.8h-5l-14.5,22.7l-1.7-17
	l2.4-5.7H-231l2.4,5.7l-1.9,17.1l-14.6-22.8h-5.8c-13.7,0.1-24.8,11.2-24.8,24.8v60.5h17.4L-258.4,230.6L-258.4,230.6z"/>
</svg>